<?xml version="1.0" encoding="UTF-8" standalone="no"?>
<!DOCTYPE svg PUBLIC "-//W3C//DTD SVG 1.1//EN"
 "http://www.w3.org/Graphics/SVG/1.1/DTD/svg11.dtd">
<!-- Generated by graphviz version 14.0.2 (20251019.1705)
 -->
<!-- Title: dependencies Pages: 1 -->
<svg width="399pt" height="290pt"
 viewBox="0.00 0.00 399.00 290.00" xmlns="http://www.w3.org/2000/svg" xmlns:xlink="http://www.w3.org/1999/xlink">
<g id="graph0" class="graph" transform="scale(1 1) rotate(0) translate(4 285.5)">
<title>dependencies</title>
<polygon fill="white" stroke="none" points="-4,4 -4,-285.5 394.88,-285.5 394.88,4 -4,4"/>
<g id="clust1" class="cluster">
<title>cluster_legend</title>
<polygon fill="lightgrey" stroke="lightgrey" points="8,-88.5 8,-273.5 125.5,-273.5 125.5,-88.5 8,-88.5"/>
<text xml:space="preserve" text-anchor="middle" x="66.75" y="-256.2" font-family="Times New Roman,serif" font-size="14.00">Легенда</text>
</g>
<!-- F -->
<g id="node1" class="node">
<title>F</title>
<polygon fill="lightyellow" stroke="black" points="390.88,-41 336.88,-41 336.88,0 390.88,0 390.88,-41"/>
<text xml:space="preserve" text-anchor="middle" x="363.88" y="-23.7" font-family="Times New Roman,serif" font-size="14.00">F</text>
<text xml:space="preserve" text-anchor="middle" x="363.88" y="-7.2" font-family="Times New Roman,serif" font-size="14.00">[1.0]</text>
</g>
<!-- D -->
<g id="node2" class="node">
<title>D</title>
<polygon fill="lightblue" stroke="black" points="300.88,-100 246.88,-100 246.88,-59 300.88,-59 300.88,-100"/>
<text xml:space="preserve" text-anchor="middle" x="273.88" y="-82.7" font-family="Times New Roman,serif" font-size="14.00">D</text>
<text xml:space="preserve" text-anchor="middle" x="273.88" y="-66.2" font-family="Times New Roman,serif" font-size="14.00">[1.0]</text>
</g>
<!-- B -->
<g id="node3" class="node">
<title>B</title>
<polygon fill="lightblue" stroke="black" points="210.88,-100 156.88,-100 156.88,-59 210.88,-59 210.88,-100"/>
<text xml:space="preserve" text-anchor="middle" x="183.88" y="-82.7" font-family="Times New Roman,serif" font-size="14.00">B</text>
<text xml:space="preserve" text-anchor="middle" x="183.88" y="-66.2" font-family="Times New Roman,serif" font-size="14.00">[1.0]</text>
</g>
<!-- B&#45;&gt;D -->
<g id="edge6" class="edge">
<title>B&#45;&gt;D</title>
<path fill="none" stroke="gray" d="M211.28,-79.5C218.76,-79.5 227.06,-79.5 235.07,-79.5"/>
<polygon fill="gray" stroke="gray" points="234.98,-83 244.98,-79.5 234.98,-76 234.98,-83"/>
</g>
<!-- A -->
<g id="node4" class="node">
<title>A</title>
<polygon fill="lightgreen" stroke="black" points="120.88,-78.25 12.62,-78.25 12.62,-20.75 120.88,-20.75 120.88,-78.25"/>
<text xml:space="preserve" text-anchor="middle" x="66.75" y="-60.95" font-family="Times New Roman,serif" font-size="14.00">A</text>
<text xml:space="preserve" text-anchor="middle" x="66.75" y="-44.45" font-family="Times New Roman,serif" font-size="14.00">[1.0]</text>
<text xml:space="preserve" text-anchor="middle" x="66.75" y="-27.95" font-family="Times New Roman,serif" font-size="14.00">(целевой пакет)</text>
</g>
<!-- A&#45;&gt;B -->
<g id="edge1" class="edge">
<title>A&#45;&gt;B</title>
<path fill="none" stroke="gray" d="M121.27,-63.45C129.47,-65.58 137.79,-67.75 145.55,-69.77"/>
<polygon fill="gray" stroke="gray" points="144.4,-73.09 154.96,-72.23 146.17,-66.32 144.4,-73.09"/>
</g>
<!-- C -->
<g id="node5" class="node">
<title>C</title>
<polygon fill="lightblue" stroke="black" points="210.88,-41 156.88,-41 156.88,0 210.88,0 210.88,-41"/>
<text xml:space="preserve" text-anchor="middle" x="183.88" y="-23.7" font-family="Times New Roman,serif" font-size="14.00">C</text>
<text xml:space="preserve" text-anchor="middle" x="183.88" y="-7.2" font-family="Times New Roman,serif" font-size="14.00">[1.0]</text>
</g>
<!-- A&#45;&gt;C -->
<g id="edge2" class="edge">
<title>A&#45;&gt;C</title>
<path fill="none" stroke="gray" d="M121.27,-36.02C129.38,-33.98 137.6,-31.91 145.27,-29.97"/>
<polygon fill="gray" stroke="gray" points="146.12,-33.37 154.96,-27.53 144.41,-26.58 146.12,-33.37"/>
</g>
<!-- C&#45;&gt;D -->
<g id="edge3" class="edge">
<title>C&#45;&gt;D</title>
<path fill="none" stroke="gray" d="M211.28,-38.2C219.37,-43.63 228.41,-49.69 237.03,-55.46"/>
<polygon fill="gray" stroke="gray" points="234.98,-58.31 245.23,-60.97 238.88,-52.49 234.98,-58.31"/>
</g>
<!-- E -->
<g id="node6" class="node">
<title>E</title>
<polygon fill="lightblue" stroke="black" points="300.88,-41 246.88,-41 246.88,0 300.88,0 300.88,-41"/>
<text xml:space="preserve" text-anchor="middle" x="273.88" y="-23.7" font-family="Times New Roman,serif" font-size="14.00">E</text>
<text xml:space="preserve" text-anchor="middle" x="273.88" y="-7.2" font-family="Times New Roman,serif" font-size="14.00">[1.0]</text>
</g>
<!-- C&#45;&gt;E -->
<g id="edge4" class="edge">
<title>C&#45;&gt;E</title>
<path fill="none" stroke="gray" d="M211.28,-20.5C218.76,-20.5 227.06,-20.5 235.07,-20.5"/>
<polygon fill="gray" stroke="gray" points="234.98,-24 244.98,-20.5 234.98,-17 234.98,-24"/>
</g>
<!-- E&#45;&gt;F -->
<g id="edge5" class="edge">
<title>E&#45;&gt;F</title>
<path fill="none" stroke="gray" d="M301.28,-20.5C308.76,-20.5 317.06,-20.5 325.07,-20.5"/>
<polygon fill="gray" stroke="gray" points="324.98,-24 334.98,-20.5 324.98,-17 324.98,-24"/>
</g>
<!-- legend_target -->
<g id="node7" class="node">
<title>legend_target</title>
<polygon fill="lightgreen" stroke="black" points="117.5,-132.5 16,-132.5 16,-96.5 117.5,-96.5 117.5,-132.5"/>
<text xml:space="preserve" text-anchor="middle" x="66.75" y="-109.45" font-family="Times New Roman,serif" font-size="14.00">Целевой пакет</text>
</g>
<!-- legend_dep -->
<g id="node8" class="node">
<title>legend_dep</title>
<polygon fill="lightblue" stroke="black" points="112.62,-186.5 20.88,-186.5 20.88,-150.5 112.62,-150.5 112.62,-186.5"/>
<text xml:space="preserve" text-anchor="middle" x="66.75" y="-163.45" font-family="Times New Roman,serif" font-size="14.00">Зависимость</text>
</g>
<!-- legend_max -->
<g id="node9" class="node">
<title>legend_max</title>
<polygon fill="lightyellow" stroke="black" points="117.5,-240.5 16,-240.5 16,-204.5 117.5,-204.5 117.5,-240.5"/>
<text xml:space="preserve" text-anchor="middle" x="66.75" y="-217.45" font-family="Times New Roman,serif" font-size="14.00">Макс. глубина</text>
</g>
</g>
</svg>
